HIERARCHY
ROOT Hips
{
 OFFSET 0.000000 0.000000 0.000000
 CHANNELS 6 Xposition Yposition Zposition Yrotation Xrotation Zrotation
 JOINT Chest
 {
  OFFSET 0.000000 14.634200 -0.016200
  CHANNELS 3 Yrotation Xrotation Zrotation
  JOINT Chest2
  {
   OFFSET 0.000000 8.932900 0.033000
   CHANNELS 3 Yrotation Xrotation Zrotation
   JOINT Chest3
   {
    OFFSET 0.000000 8.892300 0.000000
    CHANNELS 3 Yrotation Xrotation Zrotation
    JOINT Chest4
    {
     OFFSET 0.000000 8.883200 0.000000
     CHANNELS 3 Yrotation Xrotation Zrotation
     JOINT Neck
     {
      OFFSET 0.000000 13.173600 0.000000
      CHANNELS 3 Yrotation Xrotation Zrotation
      JOINT Head
      {
       OFFSET 0.000000 8.324600 0.069800
       CHANNELS 3 Yrotation Xrotation Zrotation
       End Site
       {
        OFFSET 0.000000 15.692400 0.036900
       }
      }
     }
     JOINT RightCollar
     {
      OFFSET -2.619200 8.772200 0.000000
      CHANNELS 3 Yrotation Xrotation Zrotation
      JOINT RightShoulder
      {
       OFFSET -12.922000 0.000000 0.000000
       CHANNELS 3 Yrotation Xrotation Zrotation
       JOINT RightElbow
       {
        OFFSET 0.000000 -27.880900 0.000000
        CHANNELS 3 Yrotation Xrotation Zrotation
        JOINT RightWrist
        {
         OFFSET 0.000000 -22.758700 0.008200
         CHANNELS 3 Yrotation Xrotation Zrotation
         End Site
         {
          OFFSET 0.000000 -16.965000 0.000000
         }
        }
       }
      }
     }
     JOINT LeftCollar
     {
      OFFSET 2.619200 8.772200 0.000000
      CHANNELS 3 Yrotation Xrotation Zrotation
      JOINT LeftShoulder
      {
       OFFSET 12.922000 0.000000 0.000000
       CHANNELS 3 Yrotation Xrotation Zrotation
       JOINT LeftElbow
       {
        OFFSET 0.000000 -27.880900 0.000000
        CHANNELS 3 Yrotation Xrotation Zrotation
        JOINT LeftWrist
        {
         OFFSET 0.000000 -22.758700 0.008200
         CHANNELS 3 Yrotation Xrotation Zrotation
         End Site
         {
          OFFSET 0.000000 -16.965000 0.000000
         }
        }
       }
      }
     }
    }
   }
  }
 }
 JOINT RightHip
 {
  OFFSET -12.026800 0.080100 0.008100
  CHANNELS 3 Yrotation Xrotation Zrotation
  JOINT RightKnee
  {
   OFFSET 0.000000 -42.600800 -0.000200
   CHANNELS 3 Yrotation Xrotation Zrotation
   JOINT RightAnkle
   {
    OFFSET 0.000000 -38.219300 0.054300
    CHANNELS 3 Yrotation Xrotation Zrotation
    JOINT RightToe
    {
     OFFSET 0.000000 -9.685800 15.804700
     CHANNELS 3 Yrotation Xrotation Zrotation
     End Site
     {
      OFFSET 0.000000 -1.422300 5.761700
     }
    }
   }
  }
 }
 JOINT LeftHip
 {
  OFFSET 12.026800 0.080100 0.008100
  CHANNELS 3 Yrotation Xrotation Zrotation
  JOINT LeftKnee
  {
   OFFSET 0.000000 -42.600800 -0.000200
   CHANNELS 3 Yrotation Xrotation Zrotation
   JOINT LeftAnkle
   {
    OFFSET 0.000000 -38.219300 0.054300
    CHANNELS 3 Yrotation Xrotation Zrotation
    JOINT LeftToe
    {
     OFFSET 0.000000 -9.685800 15.804700
     CHANNELS 3 Yrotation Xrotation Zrotation
     End Site
     {
      OFFSET 0.000000 -1.422300 5.761700
     }
    }
   }
  }
 }
}
MOTION
Frames: 13
Frame Time: 0.008333
0.000000 90.254400 0.000000 0.000000 -5.767877 0.000000 0.000000 11.653817 0.000000 0.000000 -5.885947 0.000000 0.000000 -0.000000 0.000000 0.000000 -0.000000 0.000000 0.000000 12.528835 0.000000 0.000000 0.711642 0.000000 0.000000 -0.000000 0.000000 0.000000 0.000000 -90.000000 0.000000 -2.309062 0.000000 0.000000 2.309062 0.000000 0.000000 -0.000000 0.000000 0.000000 -0.000000 90.000000 0.000000 -2.309062 0.000000 0.000000 2.309062 0.000000 0.000000 8.520406 0.000000 0.000000 1.905762 0.000000 -0.000000 -4.658285 0.000000 0.000000 -0.000000 0.000000 0.000000 8.520406 0.000000 0.000000 1.905762 0.000000 -0.000000 -4.658285 0.000000 0.000000 -0.000000 0.000000
-10.027838 151.862811 23.080181 170.568161 -16.828911 -0.394193 -0.322644 20.729269 0.754556 -0.049673 2.670893 0.125304 -0.078965 4.372156 0.203302 -0.226045 17.753859 0.813089 -2.151608 10.989469 -2.432464 -1.720279 -14.088718 -2.078763 7.337066 0.540670 -2.842526 19.079936 -25.759049 -11.711883 19.479047 -64.470547 -0.156971 11.508939 0.332653 -51.013494 -9.564766 0.370489 -3.057772 -2.845971 -27.160357 4.498184 34.024026 -38.442581 -54.895883 8.155064 -17.597336 19.834709 -7.262792 -54.948740 15.574916 -33.189054 77.666233 -44.938768 -7.588929 -18.311333 9.107873 0.065418 -0.144078 0.037843 21.474942 -54.310730 -24.278699 79.064826 76.099498 89.418540 6.464243 0.761624 -4.039733 0.044180 -4.052402 0.643421
-11.674052 144.602259 24.958907 170.553091 -16.831215 -0.468925 -0.277049 20.733232 0.839045 -0.049884 2.671727 0.125608 -0.082992 4.372971 0.202190 -0.223960 17.753219 0.814042 -2.147747 10.991860 -2.429616 -1.720898 -14.090564 -2.076215 7.341093 0.546302 -2.843868 19.073650 -25.761207 -11.714040 19.457279 -64.489359 -0.138873 11.514310 0.346145 -50.991497 -9.568329 0.370292 -3.058768 -2.831670 -27.154954 4.495715 34.035202 -38.441967 -54.915891 8.148190 -17.592988 19.836265 -7.362682 -54.942833 15.715839 -33.214162 77.670090 -44.965145 -7.562806 -18.370687 9.122346 0.030963 -0.091511 0.018967 21.378508 -54.333188 -24.142542 79.033120 76.102945 89.392391 6.493992 0.809370 -4.027083 0.033622 0.053002 0.020610
-13.035735 138.622799 26.505550 170.552391 -16.830845 -0.511579 -0.268663 20.737914 0.878613 -0.046290 2.668945 0.125283 -0.083381 4.374054 0.205633 -0.221875 17.752153 0.812084 -2.146497 10.993573 -2.425306 -1.718138 -14.093416 -2.078151 7.345020 0.547191 -2.843720 19.061749 -25.737733 -11.713410 19.441318 -64.533249 -0.126340 11.522702 0.365232 -50.963500 -9.565434 0.377851 -3.060327 -2.820358 -27.151214 4.491217 34.046532 -38.446061 -54.936488 8.138403 -17.591705 19.840881 -7.424920 -54.944518 15.794265 -33.239881 77.674460 -44.991453 -7.559855 -18.391711 9.129447 0.021448 -0.064048 0.013140 21.319810 -54.345188 -24.062464 79.003584 76.106006 89.361792 6.496701 0.833239 -4.024173 0.025651 0.031691 0.015723
-14.016869 134.304163 27.623363 170.551548 -16.828555 -0.553054 -0.254712 20.737195 0.922440 -0.053604 2.673490 0.126407 -0.076841 4.369751 0.204591 -0.225529 17.753303 0.813114 -2.143686 10.997732 -2.416748 -1.710689 -14.098583 -2.084554 7.354076 0.555038 -2.848886 19.058582 -25.743519 -11.715829 19.430289 -64.544753 -0.116438 11.525828 0.374440 -50.953929 -9.561535 0.386995 -3.068229 -2.814908 -27.147070 4.489806 34.052668 -38.459592 -54.947914 8.145057 -17.586843 19.841414 -7.480864 -54.944627 15.861931 -33.235242 77.677439 -44.985263 -7.550995 -18.427251 9.137878 0.005568 -0.026961 0.003411 21.265284 -54.359782 -23.993615 78.985966 76.105223 89.344207 6.512640 0.856775 -4.015251 0.008939 0.011438 0.005479
-14.639525 131.576616 28.328677 170.549667 -16.827340 -0.568340 -0.250967 20.736999 0.938050 -0.053674 2.674469 0.126898 -0.077507 4.369437 0.204745 -0.238865 17.759658 0.820371 -2.129990 10.993065 -2.424282 -1.702901 -14.095351 -2.083701 7.374816 0.561189 -2.862107 19.051510 -25.744604 -11.723085 19.420772 -64.564766 -0.105071 11.529232 0.384871 -50.943500 -9.547764 0.395084 -3.086207 -2.817442 -27.157702 4.496276 34.061313 -38.464494 -54.955844 8.157438 -17.569724 19.843804 -7.502943 -54.945485 15.888954 -33.259957 77.669905 -45.008466 -7.540927 -18.429756 9.137985 0.004733 -0.018699 0.002900 21.242942 -54.364437 -23.966913 78.986371 76.108307 89.340965 6.522651 0.859582 -4.010305 0.002764 0.007032 0.001694
-14.982234 130.076358 28.716779 170.550090 -16.825285 -0.577849 -0.251361 20.737257 0.947344 -0.051275 2.672911 0.126615 -0.080989 4.371906 0.206034 -0.237983 17.758054 0.819767 -2.126805 10.994090 -2.421456 -1.701125 -14.096377 -2.085466 7.377108 0.572355 -2.863494 19.038191 -25.735039 -11.726910 19.390015 -64.623846 -0.068465 11.544281 0.428062 -50.917427 -9.546553 0.404075 -3.089543 -2.821600 -27.150672 4.496431 34.085576 -38.470963 -54.980389 8.145111 -17.567252 19.852823 -7.517233 -54.946524 15.900840 -33.248120 77.668730 -44.995519 -7.532604 -18.428994 9.139485 0.004743 -0.012684 0.002906 21.225009 -54.371111 -23.949893 79.000773 76.110599 89.352497 6.527888 0.860265 -4.009990 -0.000264 0.004105 -0.000162
-15.146172 129.362001 28.901103 170.549166 -16.825239 -0.580358 -0.251976 20.740234 0.949579 -0.051726 2.672693 0.126698 -0.081445 4.371728 0.206300 -0.237511 17.756440 0.819544 -2.123393 10.995694 -2.418689 -1.695721 -14.097051 -2.083546 7.374561 0.584049 -2.865452 19.037318 -25.742192 -11.729773 19.367357 -64.650017 -0.046057 11.550063 0.453300 -50.883750 -9.543985 0.407663 -3.090732 -2.830096 -27.145143 4.493735 34.104833 -38.473611 -54.994928 8.133872 -17.565124 19.861224 -7.533829 -54.943069 15.907352 -33.251674 77.661051 -45.006235 -7.516455 -18.428698 9.144472 0.000043 -0.009159 0.000027 21.224172 -54.372089 -23.947839 79.016694 76.111990 89.372220 6.527966 0.858476 -4.012828 -0.000212 0.001991 -0.000130
-15.213239 129.069812 28.976058 170.547511 -16.826369 -0.582178 -0.251333 20.744692 0.951045 -0.051609 2.673169 0.126733 -0.081462 4.372547 0.206170 -0.237502 17.757878 0.819182 -2.120447 10.991875 -2.414972 -1.686578 -14.099913 -2.073640 7.369653 0.612114 -2.862837 19.036630 -25.759025 -11.746526 19.340051 -64.691619 -0.018535 11.553923 0.493886 -50.794360 -9.541416 0.406785 -3.090459 -2.837264 -27.144328 4.494253 34.131917 -38.463575 -55.024097 8.119363 -17.558838 19.874401 -7.546286 -54.940287 15.914718 -33.233289 77.660272 -44.993245 -7.514125 -18.422704 9.148763 -0.000677 -0.007744 -0.000415 21.222077 -54.372280 -23.941157 79.033564 76.112204 89.390196 6.523895 0.854657 -4.015227 0.000764 0.001494 0.000468
-15.236796 128.967947 29.002385 170.546611 -16.824569 -0.583456 -0.258089 20.747861 0.953640 -0.052454 2.675137 0.126910 -0.082922 4.375575 0.206539 -0.234937 17.754642 0.815278 -2.115571 10.985937 -2.416935 -1.679789 -14.098904 -2.065337 7.373340 0.616490 -2.864395 19.030961 -25.753863 -11.754761 19.296401 -64.738916 0.021318 11.561275 0.535903 -50.739622 -9.536288 0.410521 -3.093899 -2.840833 -27.153311 4.496236 34.142469 -38.460146 -55.033327 8.121117 -17.541998 19.875143 -7.560293 -54.941533 15.922881 -33.212482 77.662471 -44.978603 -7.511675 -18.417900 9.151279 -0.000790 -0.008151 -0.000484 21.222967 -54.378675 -23.937929 79.058438 76.113451 89.414137 6.521323 0.854136 -4.015751 0.001348 -0.000453 0.000826
-15.243686 128.937982 29.010166 170.544542 -16.822058 -0.584838 -0.260358 20.750507 0.954359 -0.052746 2.675897 0.127144 -0.083380 4.376793 0.206777 -0.238755 17.756568 0.819110 -2.107068 10.982404 -2.414751 -1.673997 -14.101704 -2.062911 7.380869 0.620427 -2.869857 19.022689 -25.744138 -11.768636 19.274500 -64.774502 0.048056 11.553272 0.562307 -50.687915 -9.527559 0.415053 -3.102349 -2.843817 -27.156774 4.495142 34.155653 -38.465863 -55.046196 8.125301 -17.527997 19.877684 -7.571689 -54.943683 15.931550 -33.199450 77.663900 -44.970038 -7.513054 -18.412947 9.152051 -0.002068 -0.008276 -0.001267 21.226772 -54.383811 -23.936849 79.076733 76.113261 89.433209 6.525140 0.851165 -4.019893 0.002062 -0.000995 0.001264
-15.245021 128.930559 29.011835 170.544030 -16.820102 -0.587957 -0.263238 20.754654 0.956005 -0.052130 2.675019 0.126713 -0.084535 4.380355 0.207880 -0.246097 17.768102 0.821795 -2.095424 10.967395 -2.413113 -1.671040 -14.104856 -2.060917 7.378246 0.647389 -2.867242 19.024750 -25.746865 -11.807143 19.255197 -64.830787 0.077921 11.545851 0.590806 -50.629944 -9.517375 0.407918 -3.112884 -2.842091 -27.150810 4.497138 34.167312 -38.472647 -55.078077 8.119800 -17.506951 19.890239 -7.580404 -54.945137 15.938442 -33.188733 77.667163 -44.957635 -7.515432 -18.411077 9.152094 0.000227 -0.007330 0.000139 21.227576 -54.388647 -23.933276 79.091165 76.109661 89.447063 6.519396 0.847218 -4.015798 0.000170 -0.001165 0.000104
-15.244986 128.928927 29.011598 170.546219 -16.818857 -0.591890 -0.268070 20.760454 0.960219 -0.049660 2.669972 0.124361 -0.085590 4.383244 0.208844 -0.250947 17.776237 0.825617 -2.090145 10.962206 -2.410848 -1.668464 -14.112245 -2.066214 7.384132 0.642393 -2.875099 19.013764 -25.732272 -11.813151 19.214984 -64.883861 0.115645 11.548785 0.637679 -50.557640 -9.507279 0.408988 -3.128094 -2.849206 -27.158610 4.507112 34.180949 -38.467922 -55.094549 8.137018 -17.462192 19.917419 -7.590747 -54.945093 15.943805 -33.192594 77.670140 -44.952765 -7.517996 -18.416787 9.143452 0.004626 -0.006201 0.002835 21.224376 -54.392778 -23.928329 79.102463 76.112165 89.459417 6.518314 0.843314 -4.015766 -0.000393 -0.001329 -0.000241
